<?xml version="1.0" encoding="UTF-8" standalone="no"?>
<!DOCTYPE svg PUBLIC "-//W3C//DTD SVG 1.1//EN" "http://www.w3.org/Graphics/SVG/1.1/DTD/svg11.dtd">
<svg width="100%" height="100%" viewBox="0 0 26 18" version="1.1" xmlns="http://www.w3.org/2000/svg" xmlns:xlink="http://www.w3.org/1999/xlink" xml:space="preserve" xmlns:serif="http://www.serif.com/" style="fill-rule:evenodd;clip-rule:evenodd;stroke-linejoin:round;stroke-miterlimit:2;">
    <g transform="matrix(1,0,0,1,-1447.02,-1958.38)">
        <g transform="matrix(1.33333,0,0,2.47738,3.78956e-14,-3.52057e-14)">
            <g transform="matrix(0.546444,0,0,0.294097,643.858,218.712)">
                <path d="M842.4,1950.18C842.4,1946.9 839.734,1944.23 836.45,1944.23L813.734,1944.23C810.45,1944.23 807.783,1946.9 807.783,1950.18L807.783,1962.08C807.783,1965.36 810.45,1968.03 813.734,1968.03L836.45,1968.03C839.734,1968.03 842.4,1965.36 842.4,1962.08L842.4,1950.18ZM811.135,1948.6L825.092,1961.52L839.049,1948.6C839.329,1949.06 839.49,1949.6 839.49,1950.18L839.49,1962.08C839.49,1963.76 838.128,1965.12 836.45,1965.12L813.734,1965.12C812.056,1965.12 810.693,1963.76 810.693,1962.08C810.693,1962.08 810.693,1950.18 810.693,1950.18C810.693,1949.6 810.855,1949.06 811.135,1948.6ZM836.345,1947.14L813.838,1947.14L825.092,1957.56L836.345,1947.14Z" style="fill:rgb(167,167,167);"/>
            </g>
        </g>
    </g>
</svg>
