<?xml version="1.0" encoding="UTF-8" standalone="no"?>
<!DOCTYPE svg PUBLIC "-//W3C//DTD SVG 1.1//EN" "http://www.w3.org/Graphics/SVG/1.1/DTD/svg11.dtd">
<svg width="100%" height="100%" viewBox="0 0 157 34" version="1.1" xmlns="http://www.w3.org/2000/svg" xmlns:xlink="http://www.w3.org/1999/xlink" xml:space="preserve" xmlns:serif="http://www.serif.com/" style="fill-rule:evenodd;clip-rule:evenodd;stroke-linejoin:round;stroke-miterlimit:2;">
    <g transform="matrix(1,0,0,1,-552,-24.532)">
        <g transform="matrix(1.33333,0,0,2.47738,3.78956e-14,-3.52057e-14)">
            <g transform="matrix(0.0356771,0,0,0.0192015,366.043,-46.795)">
                <path d="M3472.16,3241.98C3452.75,3231.16 3430.44,3225.7 3405.21,3225.7C3379.65,3225.7 3357.17,3231.16 3337.76,3242.01C3318.19,3252.93 3303.12,3267.94 3292.52,3287.01C3281.99,3305.97 3276.68,3327.44 3276.68,3351.43C3276.68,3375.41 3281.99,3396.88 3292.52,3415.84C3303.12,3434.92 3318.19,3449.93 3337.76,3460.85C3357.17,3471.69 3379.65,3477.16 3405.21,3477.16L3405.21,3477.16C3429.36,3477.16 3450.84,3472.15 3469.66,3462.22C3469.4,3487.13 3469.22,3504.85 3469.22,3508.34C3469.22,3521.07 3463.59,3531.31 3452.49,3539.16C3440.59,3547.58 3424.72,3551.64 3404.97,3551.64C3384.72,3551.64 3368.55,3547.03 3356.54,3537.49C3345.11,3528.39 3339.71,3516.25 3340.26,3501.1L3340.47,3495.3L3278.1,3495.3L3277.85,3500.64C3276.87,3522.35 3281.61,3541.49 3291.97,3558.1C3302.31,3574.68 3317.29,3587.52 3336.99,3596.55C3356.28,3605.39 3378.93,3609.86 3404.97,3609.86C3430.33,3609.86 3452.54,3605.81 3471.63,3597.78C3491.16,3589.58 3506.22,3577.8 3516.89,3562.54C3527.62,3547.18 3533.03,3529.28 3533.03,3508.81C3533.03,3500.01 3533.1,3426.51 3533.16,3357.38C3533.23,3355.41 3533.27,3353.43 3533.27,3351.43C3533.27,3349.52 3533.23,3347.63 3533.17,3345.75C3533.22,3285.31 3533.27,3231.3 3533.27,3231.3L3533.27,3225.7L3472.35,3225.7L3472.28,3231.23L3472.16,3241.98ZM4634.68,3411.02L4634.68,3405.39L4562.4,3405.39L4562.4,3477.67L4634.68,3477.67L4634.68,3411.02ZM4228.67,3477.62C4249.02,3477.62 4267.01,3474.44 4282.68,3468.14C4298.77,3461.67 4311.16,3452.66 4319.95,3441.21C4328.93,3429.53 4333.45,3415.9 4333.45,3400.32C4333.45,3376.6 4324.84,3358.53 4307.9,3345.99C4291.8,3334.08 4266.1,3325.98 4230.68,3322.12C4214.95,3320.37 4203.62,3317.68 4196.77,3313.74C4191.46,3310.69 4188.64,3306.56 4188.64,3301.14C4188.64,3294.85 4192.13,3290.17 4198.65,3286.79C4206.74,3282.6 4218.48,3280.66 4233.79,3280.66C4256.31,3280.66 4277.35,3286.9 4296.91,3299.34L4301.71,3302.4L4330.26,3255.79L4325.92,3252.77C4299.57,3234.45 4268.1,3225.23 4231.47,3225.23C4211.14,3225.23 4193.15,3228.33 4177.51,3234.46C4161.43,3240.76 4148.96,3249.6 4140.01,3260.87C4130.83,3272.43 4126.22,3285.85 4126.22,3301.14C4126.22,3322.84 4135.09,3340.41 4152.9,3353.81C4169.87,3366.57 4193.98,3374.57 4225.32,3377.49C4242.01,3379.24 4254.13,3382.03 4261.6,3386.14C4267.47,3389.36 4270.57,3393.86 4270.57,3399.85C4270.57,3406.15 4267.4,3410.9 4261.33,3414.29C4253.92,3418.42 4243.47,3420.33 4230.07,3420.33C4215.44,3420.33 4201.25,3418.17 4187.52,3413.84C4173.93,3409.55 4162.26,3403.6 4152.51,3395.92L4147.67,3392.1L4117.3,3439.4L4121.49,3442.52C4152.89,3465.91 4188.62,3477.62 4228.67,3477.62L4228.67,3477.62ZM3973.04,3477.16C3998.29,3477.16 4020.61,3471.69 4040.03,3460.85C4059.59,3449.93 4074.66,3434.92 4085.26,3415.84C4095.8,3396.88 4101.1,3375.41 4101.1,3351.43C4101.1,3327.44 4095.8,3305.97 4085.26,3287.01C4074.66,3267.94 4059.59,3252.93 4040.03,3242.01C4020.61,3231.16 3998.29,3225.7 3973.04,3225.7C3947.48,3225.7 3925,3231.16 3905.59,3242.01C3886.02,3252.93 3870.95,3267.94 3860.35,3287.01C3849.82,3305.97 3844.52,3327.44 3844.52,3351.43C3844.52,3375.41 3849.82,3396.88 3860.35,3415.84C3870.95,3434.92 3886.02,3449.93 3905.59,3460.85C3925,3471.69 3947.48,3477.16 3973.04,3477.16L3973.04,3477.16ZM2842.96,3477.16C2868.21,3477.16 2890.53,3471.69 2909.95,3460.85C2929.51,3449.93 2944.59,3434.92 2955.18,3415.84C2965.72,3396.88 2971.02,3375.41 2971.02,3351.43C2971.02,3327.44 2965.72,3305.97 2955.18,3287.01C2944.59,3267.94 2929.51,3252.93 2909.95,3242.01C2890.53,3231.16 2868.21,3225.7 2842.96,3225.7C2817.4,3225.7 2794.92,3231.16 2775.51,3242.01C2755.95,3252.93 2740.87,3267.94 2730.27,3287.01C2719.74,3305.97 2714.44,3327.44 2714.44,3351.43C2714.44,3375.41 2719.74,3396.88 2730.27,3415.84C2740.87,3434.92 2755.95,3449.93 2775.51,3460.85C2794.92,3471.69 2817.4,3477.16 2842.96,3477.16L2842.96,3477.16ZM3238.29,3472.04L3238.29,3230.82L3174.94,3230.82L3174.94,3357.48C3174.94,3375.45 3169.63,3390.18 3158.79,3401.58C3148.04,3412.9 3134,3418.47 3116.75,3418.47C3101.81,3418.47 3089.99,3413.61 3081.41,3403.65C3072.55,3393.36 3068.34,3378.86 3068.34,3360.27C3068.34,3360.27 3068.34,3230.82 3068.34,3230.82L3004.99,3230.82L3004.99,3363.53C3004.99,3386.21 3009.17,3405.96 3017.43,3422.81C3025.84,3439.95 3037.82,3453.21 3053.32,3462.61C3068.74,3471.96 3086.77,3476.69 3107.44,3476.69C3136.71,3476.69 3160.98,3467.85 3180.28,3450.27C3180.28,3450.27 3180.62,3472.04 3180.62,3472.04L3238.29,3472.04ZM4456.84,3230.82L4456.84,3165.16L4394.07,3165.16L4393.97,3230.82C4393.97,3230.82 4350.65,3230.82 4350.65,3230.82L4350.65,3286.25L4380.68,3286.25L4380.68,3286.25L4393.96,3286.25L4393.93,3472.05L4399.53,3472.05C4441.42,3472.05 4413.86,3472.04 4451.15,3472.04L4456.75,3472.04L4456.84,3286.25L4524.82,3286.25L4524.82,3230.82L4456.84,3230.82ZM2422.51,3196.38L2422.51,3134.9L2145.44,3134.9L2145.44,3196.38L2251.14,3196.38C2251.14,3196.38 2251.14,3472.04 2251.14,3472.04L2316.81,3472.04L2316.81,3196.38C2316.81,3196.38 2422.51,3196.38 2422.51,3196.38ZM3707.17,3226.16C3679.53,3226.16 3656.58,3234.14 3638.27,3249.99C3638.27,3249.99 3638.27,3134.9 3638.27,3134.9L3574.92,3134.9L3574.92,3472.04L3638.27,3472.04L3638.27,3345.37C3638.27,3327.71 3643.75,3313.07 3654.86,3301.53C3665.91,3290.06 3680.11,3284.39 3697.39,3284.39C3712.97,3284.39 3725.28,3289.25 3734.18,3299.27C3743.31,3309.55 3747.66,3324.03 3747.66,3342.58L3747.66,3472.04L3811.01,3472.04L3811.01,3339.32C3811.01,3305.14 3801.58,3277.85 3783.03,3257.34C3764.3,3236.64 3739.04,3226.16 3707.17,3226.16ZM2577.09,3226.16C2549.45,3226.16 2526.5,3234.14 2508.19,3249.99C2508.19,3249.99 2508.19,3134.9 2508.19,3134.9L2444.84,3134.9L2444.84,3472.04L2508.19,3472.04L2508.19,3345.37C2508.19,3327.71 2513.67,3313.07 2524.78,3301.53C2535.83,3290.06 2550.03,3284.39 2567.31,3284.39C2582.89,3284.39 2595.2,3289.25 2604.1,3299.27C2613.23,3309.55 2617.59,3324.03 2617.59,3342.58C2617.59,3342.58 2617.59,3472.04 2617.59,3472.04L2680.93,3472.04L2680.93,3339.32C2680.93,3305.14 2671.5,3277.85 2652.95,3257.34C2634.22,3236.64 2608.96,3226.16 2577.09,3226.16ZM3973.04,3418.47C3960.18,3418.47 3948.8,3415.51 3938.93,3409.5C3929.1,3403.51 3921.47,3395.46 3916.05,3385.34C3910.58,3375.12 3907.86,3363.81 3907.86,3351.43C3907.86,3339.05 3910.58,3327.74 3916.05,3317.52C3921.47,3307.39 3929.1,3299.34 3938.93,3293.35C3948.8,3287.35 3960.18,3284.39 3973.04,3284.39C3985.91,3284.39 3997.28,3287.35 4007.15,3293.35C4016.96,3299.33 4024.51,3307.36 4029.77,3317.46C4035.11,3327.7 4037.75,3339.03 4037.75,3351.43C4037.75,3363.83 4035.11,3375.15 4029.77,3385.39C4024.51,3395.49 4016.96,3403.53 4007.15,3409.5C3997.28,3415.51 3985.91,3418.47 3973.04,3418.47ZM2842.96,3418.47C2830.1,3418.47 2818.72,3415.51 2808.86,3409.5C2799.02,3403.51 2791.39,3395.46 2785.97,3385.34C2780.5,3375.12 2777.78,3363.81 2777.78,3351.43C2777.78,3339.05 2780.5,3327.74 2785.97,3317.52C2791.39,3307.39 2799.02,3299.34 2808.86,3293.35C2818.72,3287.35 2830.1,3284.39 2842.96,3284.39C2855.83,3284.39 2867.2,3287.35 2877.07,3293.35C2886.89,3299.33 2894.43,3307.36 2899.69,3317.46C2905.03,3327.7 2907.67,3339.03 2907.67,3351.43C2907.67,3363.83 2905.03,3375.15 2899.69,3385.39C2894.43,3395.49 2886.89,3403.53 2877.07,3409.5C2867.2,3415.51 2855.83,3418.47 2842.96,3418.47ZM3405.21,3418.47C3392.34,3418.47 3380.97,3415.51 3371.1,3409.5C3361.26,3403.51 3353.63,3395.46 3348.22,3385.34C3342.74,3375.12 3340.03,3363.81 3340.03,3351.43C3340.03,3339.05 3342.74,3327.74 3348.22,3317.52C3353.63,3307.39 3361.26,3299.34 3371.1,3293.35C3380.97,3287.35 3392.34,3284.39 3405.21,3284.39C3418.07,3284.39 3429.45,3287.35 3439.31,3293.35C3449.13,3299.33 3456.67,3307.36 3461.94,3317.46C3467.27,3327.7 3469.92,3339.03 3469.92,3351.43C3469.92,3363.83 3467.27,3375.15 3461.94,3385.39C3456.67,3395.49 3449.13,3403.53 3439.31,3409.5C3429.45,3415.51 3418.07,3418.47 3405.21,3418.47Z" style="fill:rgb(16,16,16);fill-rule:nonzero;"/>
                <g transform="matrix(0.966114,0.258869,-0.258869,0.966114,668.086,-2210.16)">
                    <path d="M2320.3,5391.38C2375.42,5339.79 2495.6,5286.83 2528.75,5232.63C2528.75,5297.42 2527.85,5350.11 2527.24,5385.71C2460.43,5408.5 2388.03,5410.39 2320.3,5391.38ZM2111.32,5226.67C2186.78,5229.15 2309.25,5276.71 2371.03,5261.82C2325.2,5307.65 2287.29,5344.28 2261.69,5369.02C2228.17,5352.61 2196.74,5330.48 2168.88,5302.61C2145.75,5279.49 2126.57,5253.9 2111.32,5226.67ZM2584.49,5360.18C2586.96,5284.72 2634.52,5162.24 2619.63,5100.46C2665.47,5146.29 2702.1,5184.2 2726.84,5209.81C2710.43,5243.32 2688.29,5274.75 2660.43,5302.61C2637.3,5325.74 2611.71,5344.93 2584.49,5360.18ZM2080.12,4962.49C2131.7,5017.6 2184.67,5137.78 2238.87,5170.94C2174.08,5170.94 2121.39,5170.03 2085.78,5169.42C2062.99,5102.61 2061.1,5030.22 2080.12,4962.49ZM2749.19,5151.19C2697.61,5096.08 2644.64,4975.9 2590.44,4942.74C2655.23,4942.74 2707.92,4943.65 2743.53,4944.26C2766.32,5011.07 2768.2,5083.46 2749.19,5151.19ZM2244.82,4753.5C2242.34,4828.96 2194.79,4951.44 2209.67,5013.22C2163.84,4967.39 2127.21,4929.48 2102.47,4903.87C2118.88,4870.36 2141.02,4838.93 2168.88,4811.07C2192.01,4787.94 2217.6,4768.75 2244.82,4753.5ZM2567.62,4744.66C2601.14,4761.07 2632.57,4783.2 2660.43,4811.07C2683.56,4834.19 2702.74,4859.78 2717.99,4887.01C2642.53,4884.53 2520.06,4836.97 2458.27,4851.86C2504.11,4806.03 2542.01,4769.4 2567.62,4744.66ZM2302.07,4727.97C2368.88,4705.18 2441.28,4703.29 2509.01,4722.31C2453.89,4773.89 2333.71,4826.85 2300.55,4881.05C2300.55,4816.26 2301.46,4763.57 2302.07,4727.97Z" style="fill:rgb(16,16,16);"/>
                </g>
                <g transform="matrix(1.71421,-2.22045e-16,2.22045e-16,1.71421,-2129.4,-5203.34)">
                    <path d="M2229.49,4858.18C2285.94,4858.37 2331.71,4904.25 2331.71,4960.73C2331.71,5017.33 2285.76,5063.28 2229.16,5063.28C2172.56,5063.28 2126.62,5017.33 2126.62,4960.73C2126.62,4904.13 2172.56,4858.18 2229.16,4858.18M2229.16,4858.18C2226.79,4860.84 2223.8,4864.51 2221.93,4867.95C2210.55,4888.87 2203.53,4922.67 2203.53,4960.73C2203.53,4998.79 2210.55,5032.59 2221.93,5053.51C2223.8,5056.94 2226.79,5060.62 2229.16,5063.28C2231.53,5060.62 2234.53,5056.94 2236.39,5053.51C2247.77,5032.59 2254.8,4998.79 2254.8,4960.73C2254.8,4922.67 2247.77,4888.87 2236.39,4867.95C2234.53,4864.51 2231.53,4860.84 2229.16,4858.18Z" style="fill:rgb(16,16,16);"/>
                </g>
            </g>
        </g>
    </g>
</svg>
