<?xml version="1.0" encoding="UTF-8" standalone="no"?><!DOCTYPE svg PUBLIC "-//W3C//DTD SVG 1.1//EN" "http://www.w3.org/Graphics/SVG/1.1/DTD/svg11.dtd"><svg width="100%" height="100%" viewBox="0 0 40 40" version="1.1" xmlns="http://www.w3.org/2000/svg" xmlns:xlink="http://www.w3.org/1999/xlink" xml:space="preserve" xmlns:serif="http://www.serif.com/" style="fill-rule:evenodd;clip-rule:evenodd;stroke-linecap:round;stroke-miterlimit:1.5"><g transform="matrix(1,0,0,1,-1407.99,-1610.71)"><g transform="matrix(1,0,0,1,-2084.14,-5.00358)"><g transform="matrix(1,0,0,1,-56.3235,21.5846)"><path d="M3588.12,1594.13L3548.44,1594.13L3548.44,1633.81L3588.12,1633.81L3588.12,1594.13ZM3587.12,1595.13L3587.12,1632.81C3587.12,1632.81 3549.44,1632.81 3549.44,1632.81C3549.44,1632.81 3549.44,1595.13 3549.44,1595.13L3587.12,1595.13Z" style="fill:white"/></g></g><g transform="matrix(1,0,0,1,-2084.14,-5.00358)"><g transform="matrix(0.698921,0,0,0.698921,1018.01,507.517)"><path d="M3588.12,1594.13L3548.44,1633.81" style="fill:none;stroke:white;stroke-width:1.43px"/></g></g><g transform="matrix(1,0,0,1,-2084.14,-5.00358)"><g transform="matrix(0.698921,0,0,0.698921,1018.01,507.517)"><path d="M3548.44,1594.13L3588.12,1633.81" style="fill:none;stroke:white;stroke-width:1.43px"/></g></g></g></svg>